<svg width="256" height="29" viewBox="0 0 256 29" fill="none" xmlns="http://www.w3.org/2000/svg">
<g filter="url(#filter0_d)">
<path d="M192.065 4.95117C196.509 4.95117 199.127 7.62194 199.782 11.2986H195.131C194.649 9.98054 193.719 9.11341 192.065 9.11341C189.585 9.11341 188.207 11.2986 188.207 14.2815C188.207 17.2298 189.62 19.4496 192.065 19.4496C193.684 19.4496 194.649 18.5825 195.131 17.2298H199.782C199.127 20.9411 196.509 23.5772 192.065 23.5772C187.07 23.5772 183.488 19.7271 183.488 14.2815C183.488 8.80124 187.07 4.95117 192.065 4.95117Z" fill="#00499E"/>
<rect x="114.06" y="5.18701" width="4.48682" height="17.9187" fill="#00499E"/>
<path d="M34.7139 23.813H39.2112V17.1624H45.9398V13.0273H39.2112V10.0983H47.2298V5.89429H34.7139V23.813Z" fill="#00499E"/>
<path d="M97.2933 23.1057H101.756V16.4207H108.519V12.32H101.756V9.39101H109.809V5.18701H97.2933V23.1057Z" fill="#00499E"/>
<path fill-rule="evenodd" clip-rule="evenodd" d="M142.162 23.1057L149.079 5.18701H153.9L160.818 23.1057H155.996L154.704 19.6186H148.101L146.843 23.1057H142.162ZM153.271 15.7518L151.42 10.7111L149.533 15.7518H153.271Z" fill="#00499E"/>
<path d="M61.8608 12.6138H56.2135V5.89429H51.7166V23.813H56.2135V16.9901H61.8608V23.813H66.3578V5.89429H61.8608V12.6138Z" fill="#00499E"/>
<path d="M82.5949 5.89429V16.2665L76.0103 5.96321L75.9753 5.89429H71.317V23.813H75.66V12.9584L82.5248 23.7441L82.5598 23.813H86.9028V5.89429H82.5949Z" fill="#00499E"/>
<path d="M134.774 5.18701V15.5247L128.21 5.25593L128.175 5.18701H123.506V23.1057H127.859V12.2511L134.739 23.0368L134.774 23.1057H139.092V5.18701H134.774Z" fill="#00499E"/>
<path d="M175.155 5.18701V15.5247L168.591 5.25593L168.556 5.18701H163.887V23.1057H168.24V12.2511L175.12 23.0368L175.155 23.1057H179.473V5.18701H175.155Z" fill="#00499E"/>
<rect x="204.033" y="5.18701" width="4.72296" height="17.9187" fill="#00499E"/>
<path fill-rule="evenodd" clip-rule="evenodd" d="M230.718 23.1057L223.8 5.18701H218.979L212.062 23.1057H216.743L218.001 19.6186H224.604L225.896 23.1057H230.718ZM223.206 15.7863H219.468L221.355 10.7456L223.206 15.7863Z" fill="#00499E"/>
<path d="M234.024 5.18701H238.736V19.0395H246.776V23.1057H234.024V5.18701Z" fill="#00499E"/>
<path d="M250.425 22.6342C250.528 22.932 250.769 23.0809 251.078 23.0809C251.421 23.0809 251.662 22.8947 251.662 22.5969C251.662 22.3736 251.559 22.2247 251.25 22.1502L250.803 22.0013C250.46 21.8896 250.185 21.7035 250.185 21.294C250.185 20.81 250.528 20.5122 251.043 20.5122C251.559 20.5122 251.902 20.81 251.971 21.2568H251.627C251.559 20.9962 251.353 20.81 251.009 20.81C250.7 20.81 250.46 20.9962 250.46 21.2568C250.46 21.4801 250.597 21.5918 250.872 21.6663L251.318 21.7779C251.73 21.8896 251.971 22.1502 251.971 22.5225C251.971 23.0437 251.593 23.3415 251.078 23.3415C250.563 23.3415 250.185 23.0809 250.082 22.5597H250.425V22.6342Z" fill="#00499E"/>
<path d="M253.634 23.1057L252.804 21.108V23.1057H252.443V20.5122H252.84L253.778 22.6501L254.68 20.5122H255.041V23.1057H254.716V21.108L253.886 23.1057H253.634Z" fill="#00499E"/>
</g>
<path d="M0 0.23584H28.8102V28.7643H10C4.47715 28.7643 0 24.2871 0 18.7643V0.23584Z" fill="white"/>
<path d="M28.7629 19.3805V0.11792H10.0599C18.8919 3.27727 25.8583 10.4212 28.7629 19.3805Z" fill="#FF3A1E"/>
<path d="M26.7085 28.6935C26.7085 23.8131 25.386 19.2391 23.0954 15.2781L16.6013 19.7578V26.7366L11.2407 22.6813L2.26704 26.7366L7.4387 18.909L3.49502 14.5L10.7212 14.3114L16.3179 7.52119C11.8075 4.00818 6.1635 1.90981 0.0472412 1.88623V26.1708C0.0472412 27.6326 1.22799 28.7879 2.66849 28.7879H26.7085V28.6935Z" fill="#00499E"/>
<path d="M16.6012 7.75684V14.3113L22.5758 14.4528C20.9936 11.9064 18.9627 9.64301 16.6012 7.75684Z" fill="#00499E"/>
<defs>
<filter id="filter0_d" x="34.7139" y="4.95117" width="220.327" height="20.8618" filterUnits="userSpaceOnUse" color-interpolation-filters="sRGB">
<feFlood flood-opacity="0" result="BackgroundImageFix"/>
<feColorMatrix in="SourceAlpha" type="matrix" values="0 0 0 0 0 0 0 0 0 0 0 0 0 0 0 0 0 0 127 0"/>
<feOffset dy="2"/>
<feColorMatrix type="matrix" values="0 0 0 0 1 0 0 0 0 1 0 0 0 0 1 0 0 0 0.5 0"/>
<feBlend mode="normal" in2="BackgroundImageFix" result="effect1_dropShadow"/>
<feBlend mode="normal" in="SourceGraphic" in2="effect1_dropShadow" result="shape"/>
</filter>
</defs>
</svg>
